<svg id="Layer_1" data-name="Layer 1" xmlns="http://www.w3.org/2000/svg" viewBox="0 0 185.61 76.06"><defs><style>.cls-1{fill:#fff;}</style></defs><path class="cls-1" d="M0,66.77V65.25a9,9,0,0,1,.19-1.53c.12-.74.28-1.46.47-2.18a11.63,11.63,0,0,1,.82-2.27A12.6,12.6,0,0,1,3,57.11c.8-1,1.66-1.92,2.47-2.89a13.94,13.94,0,0,0,1.73-2.57c.26-.51.57-1,.86-1.47A5.07,5.07,0,0,0,8.64,48c.18-2.94,0-5.89,0-8.83,0-3.3-.09-6.6-.07-9.91q0-.84.06-1.68a16.8,16.8,0,0,1,.13-1.72,26.22,26.22,0,0,0,.13-4.25,15.14,15.14,0,0,0-.2-1.78c0-.12-.15-.08-.21-.09-.75-.16-1.49-.37-2.24-.58a14.68,14.68,0,0,1-3.12-1.23A6.45,6.45,0,0,1,1,16.17,4.43,4.43,0,0,1,.07,14a5.61,5.61,0,0,1,.06-2,3.62,3.62,0,0,1,1.31-2c.71-.58,1.47-1.09,2.18-1.66.15-.12.07-.32,0-.48,0-.47-.12-.93-.19-1.4s-.11-.88-.2-1.31a12.66,12.66,0,0,1-.22-1.84,9.33,9.33,0,0,1,0-1.83A2.34,2.34,0,0,1,3.57.36a.39.39,0,0,1,.08-.1c.28-.38.43-.41.87-.19A3.93,3.93,0,0,1,5.83,1.26C6.51,2.16,7,3.15,7.64,4.1a10.29,10.29,0,0,0,.82,1.14,1.41,1.41,0,0,0,1,.55c.84.09,1.68.15,2.51.26a6,6,0,0,1,3,1,.42.42,0,0,0,.57,0,11.16,11.16,0,0,0,1.37-1,3.86,3.86,0,0,1,1.61-.88,1.88,1.88,0,0,1,.58,0c.23,0,.27.24.32.4a3.33,3.33,0,0,1-.07,2c-.21.79-.51,1.55-.67,2.35-.07.35.16.59.3.85a8.64,8.64,0,0,1,1.13,2.9,4.24,4.24,0,0,1-1,3.76A4.9,4.9,0,0,1,17,18.76a19.73,19.73,0,0,1-2.73.56c-.37.05-.38.05-.33.42a55.69,55.69,0,0,1,.3,7.75c0,1.84-.13,3.68-.22,5.52-.12,2.5-.21,5-.11,7.51A25.37,25.37,0,0,0,15,47.1a40.28,40.28,0,0,0,1.92,5,29.3,29.3,0,0,0,2,3.37,19.47,19.47,0,0,1,2.24,4.26A21.11,21.11,0,0,1,22,63.15a25.69,25.69,0,0,1,.19,5.61c0,.22.06.24.25.24a12.66,12.66,0,0,0,8.23-3,33.18,33.18,0,0,0,7.42-8.42c.4-.64.81-1.29,1.19-1.95a4.84,4.84,0,0,0,.56-2,14.84,14.84,0,0,0,0-2.31A19.32,19.32,0,0,0,39,46.15a13.93,13.93,0,0,0-2.46-4.38,19.36,19.36,0,0,0-5.39-4.56c-1.74-1-3.52-2-5.23-3.09A15.49,15.49,0,0,1,21.48,30,8.84,8.84,0,0,1,20,26.16a20.57,20.57,0,0,1-.06-4c.11-1.5.33-3,.53-4.47.08-.66.22-1.32.28-2s.2-1.55.34-2.32A9.07,9.07,0,0,1,22,10.7a2.38,2.38,0,0,1,1.41-1.25,1.82,1.82,0,0,1,1.54.23,2.71,2.71,0,0,1,1.45,1.69,3.46,3.46,0,0,1-.07,1.75,14.61,14.61,0,0,1-1,2.38,11.68,11.68,0,0,0-1,3.15,25.13,25.13,0,0,0-.27,5.2,7.4,7.4,0,0,0,.49,2.55,4.5,4.5,0,0,0,1.91,2,18,18,0,0,0,3.24,1.43,19.1,19.1,0,0,1,4,1.85,27.46,27.46,0,0,1,3,2.27c.67.59,1.31,1.2,1.93,1.85a21.36,21.36,0,0,1,3,4.13,17.68,17.68,0,0,1,2.1,5.85A28.77,28.77,0,0,1,44,51.93,24.24,24.24,0,0,1,43.75,55a20.45,20.45,0,0,1-.89,3.69,14.71,14.71,0,0,1-2.17,4.13c-1,1.29-2.07,2.48-3.08,3.74a35.25,35.25,0,0,1-3.31,3.7A20,20,0,0,1,29,73.87a32.23,32.23,0,0,1-4.36,1.64,11.28,11.28,0,0,1-4.4.43,3.52,3.52,0,0,1-.9-.24A8.87,8.87,0,0,0,17,75.21a111.78,111.78,0,0,0-11.72-.28,8.19,8.19,0,0,0-1.3.21,2.32,2.32,0,0,1-.83,0c-.21-.06-.4-.14-.4-.4a2.33,2.33,0,0,0-.62-1.44c-.26-.36-.52-.73-.81-1.07A5.39,5.39,0,0,1,.14,69.5,13.84,13.84,0,0,1,0,66.77Z" transform="translate(0 0.07)"/><path class="cls-1" d="M85.88,15.64c.41,2.7.65,5.3.92,7.9a117.43,117.43,0,0,1,.3,15.58c-.08,2.43-.35,4.84-.65,7.26-.09.73-.17,1.47-.22,2.21,0,.42-.22.5-.6.45-1-.14-2-.28-2.94-.36-.43,0-.54-.19-.48-.57.2-1.22.28-2.45.41-3.68.2-1.78.34-3.57.44-5.36.13-2.49.15-5,.13-7.49s-.17-5-.37-7.47c0-.22.1-.54-.13-.63s-.41.2-.59.35l-10.1,8c-.43.34-.89.89-1.34.9s-.85-.57-1.27-.91L59,23.49l-.2-.12a3.72,3.72,0,0,0-.25,1.55,112.81,112.81,0,0,0-.26,11.63c.08,3,.35,5.93.6,8.89.08.9.17,1.8.3,2.69.07.44-.1.51-.49.55-1,.08-1.92.2-2.88.35-.43.07-.61-.08-.65-.48-.21-2.21-.46-4.42-.65-6.64a96,96,0,0,1-.31-11.25c.09-3.11.28-6.22.66-9.31.2-1.66.37-3.32.56-5,0-.2,0-.47.17-.55s.32.14.47.25l11.43,9.07c.92.73,1.86,1.43,2.77,2.18a.59.59,0,0,0,.83.06l.06-.06Q77,22.64,83,18Z" transform="translate(0 0.07)"/><path class="cls-1" d="M127.11,49c-5.26-.16-8.92-2.83-11.14-7.46a14,14,0,0,1,5.46-17.62,10,10,0,0,1,13.83,2.94,9,9,0,0,1,.5.85,7.92,7.92,0,0,1-3,10.81l0,0c-3.76,2-7.65.35-8.71-3.42a4.87,4.87,0,0,1,3.46-6A4.8,4.8,0,0,1,128.7,29c.36,0,.45.1.44.45v2.91c0,.34-.08.45-.44.5a1,1,0,0,0-1.11.88,1,1,0,0,0,.19.71c.48,1.22,1.91,1.58,3.24.8a4.27,4.27,0,0,0,1.77-4.8A6.11,6.11,0,0,0,124,26.84a9.53,9.53,0,0,0-5.18,7.71,9.36,9.36,0,0,0,3,8.55,8.14,8.14,0,0,0,10.88.2,22.35,22.35,0,0,0,1.67-1.57c.25-.25.41-.25.65,0,.69.68,1.4,1.34,2.11,2,.18.18.28.29,0,.54a14,14,0,0,1-7.91,4.61C128.5,49,127.81,48.9,127.11,49Z" transform="translate(0 0.07)"/><path class="cls-1" d="M181.48,48.74h-1.36c-.45,0-.56-.15-.56-.56a52.5,52.5,0,0,0-.37-5.74,3.45,3.45,0,0,0-.11-.54c-.09-.46,0-1.09-.33-1.32s-.91-.07-1.39-.08H163.55c-.59,0-.81.18-.91.77a41.44,41.44,0,0,0-.55,6.39c0,1.08,0,1.08-1,1.08h-2.35c-.36,0-.45-.12-.44-.46.14-5.71.94-11.27,3.61-16.43a30.42,30.42,0,0,1,8.67-10,.41.41,0,0,1,.57,0l0,0a29.59,29.59,0,0,1,10,12.94,36.07,36.07,0,0,1,2.21,11.34c0,.72.06,1.44.11,2.16,0,.4-.12.49-.49.47S182,48.74,181.48,48.74ZM170.83,36.68h6.32c.52,0,.6-.14.41-.6A24.92,24.92,0,0,0,171.38,27c-.37-.35-.61-.38-1,0a23.69,23.69,0,0,0-6.29,9.19c-.18.45-.09.57.38.56h6.38Z" transform="translate(0 0.07)"/><path class="cls-1" d="M113.46,46.59a12.6,12.6,0,0,0,.08,1.73c0,.31-.06.44-.4.43h-3c-.35,0-.45-.11-.45-.46,0-1.26,0-2.52-.1-3.77a31.29,31.29,0,0,0-.48-3.61c0-.28-.17-.4-.49-.4H93.45c-.43,0-.51.23-.57.56a34.13,34.13,0,0,0-.6,7.06c0,.47-.1.65-.61.62H88.89c-.3,0-.45,0-.44-.41,0-7,1.38-13.58,5.4-19.45a32.17,32.17,0,0,1,6.88-7,.41.41,0,0,1,.57,0l0,0a28.52,28.52,0,0,1,10.12,13.49A35.4,35.4,0,0,1,113.46,46.59Zm-5.59-10a24.43,24.43,0,0,0-6.57-9.84c-.28-.25-.45-.17-.68,0a23.53,23.53,0,0,0-6.44,9.38c-.12.33-.09.43.28.43Z" transform="translate(0 0.07)"/><path class="cls-1" d="M146.08,42A17.9,17.9,0,0,0,150,44.57a8.74,8.74,0,0,0,1.79.66c1.09.28,1.71-.27,1.47-1.38a26.47,26.47,0,0,0-.67-2.62c-.15-.52,0-.75.5-.88.85-.24,1.68-.54,2.52-.81.3-.1.5-.06.6.3A15.06,15.06,0,0,1,157,45a4.22,4.22,0,0,1-4.1,4,10.69,10.69,0,0,1-6.67-2.19,25.73,25.73,0,0,1-3.59-2.92c-.09-.08-.15-.2-.37-.19.08.93.16,1.86.25,2.78a11.66,11.66,0,0,0,.16,1.66c.05.33,0,.45-.37.46-1,0-2,.08-3,.16-.36,0-.41-.16-.43-.43-.24-2.84-.54-5.67-.56-8.51,0-4-.14-8.09.16-12.13.13-1.61.29-3.2.42-4.8,0-.4.17-.54.57-.48.93.14,1.87.27,2.81.37.37,0,.47.14.43.53A117.19,117.19,0,0,0,142,37.86a4.57,4.57,0,0,1,0,.74c0,.48.13.62.62.49a13.12,13.12,0,0,0,7.91-5.93A18.29,18.29,0,0,0,153,23.42c0-.66.2-.82.82-.78.87.05,1.73,0,2.6,0,.24,0,.37,0,.37.32,0,5.49-1.22,10.58-5,14.82a15.7,15.7,0,0,1-5.07,3.78Z" transform="translate(0 0.07)"/><path class="cls-1" d="M128.14,17a2,2,0,0,1-1.94,2,2.31,2.31,0,0,1-2.09-2.15,1.93,1.93,0,0,1,2-1.87h0a2,2,0,0,1,2,2Z" transform="translate(0 0.07)"/><path class="cls-1" d="M107.77,65.35l-1.92,4.05c-.3-.54-.54-.93-.74-1.34-1-2.15-2.08-4.3-3.11-6.46-.36-.77-.14-1.19.69-1.43L106,67.36a2.27,2.27,0,0,0,.29-.4L109,60.49a.92.92,0,0,0-.28-1.26l-.06,0h2.57c-1.27.94-1.65,2.38-2.36,3.63a2,2,0,0,0,0,2.23c.44.7.76,1.48,1.21,2.38.41-.89.77-1.62,1.08-2.37.62-1.48,1.22-3,1.84-4.45a1.08,1.08,0,0,0-.22-1.41h2.47c-1.35,1-1.75,2.56-2.43,3.93-1,2-1.93,4.06-3,6.3Z" transform="translate(0 0.07)"/><path class="cls-1" d="M65.78,67.17a2.23,2.23,0,0,1-1.65,1.72,7.61,7.61,0,0,1-5.83-.34,4.76,4.76,0,0,1-2.72-4.49,4.94,4.94,0,0,1,3.51-4.63,6.86,6.86,0,0,1,5.54.31A1.92,1.92,0,0,1,65.71,61,1.59,1.59,0,0,1,65,62.92a9.64,9.64,0,0,1-4.86,1.3,19.9,19.9,0,0,0,2.58-.94A3.3,3.3,0,0,0,64.07,62a1.62,1.62,0,0,0-.83-2.12,1.52,1.52,0,0,0-.28-.09,4.73,4.73,0,0,0-5.2,1.66c-1.46,2.08-.62,5.15,1.64,6.6,1.68,1.07,4.89.48,6-.55A3.9,3.9,0,0,1,65.78,67.17Z" transform="translate(0 0.07)"/><path class="cls-1" d="M145.52,66.93a3,3,0,0,0,.26-.64c.08-.37-.08-.73-.46-.74a.84.84,0,0,0-.69.44,1.68,1.68,0,0,0,.39,1.84,3,3,0,0,0,3.25.64,1.63,1.63,0,0,0,.95-2.1,1.66,1.66,0,0,0-.42-.62,14.75,14.75,0,0,0-1.66-1.29c-.54-.39-1.1-.76-1.61-1.18a2,2,0,0,1-.78-2.24,2.31,2.31,0,0,1,1.88-1.74,7.64,7.64,0,0,1,1.51-.06,13,13,0,0,1,1.83.09l.14,1.71-.13.06-.51-.6a2.57,2.57,0,0,0-3.15-.49,1.27,1.27,0,0,0-.47,1.72,1.18,1.18,0,0,0,.22.28,14.8,14.8,0,0,0,1.64,1.32l1.83,1.38a2.53,2.53,0,0,1,.15,3.56,2.17,2.17,0,0,1-.36.32,4.38,4.38,0,0,1-5.26-.47,2.27,2.27,0,0,1-.59-2.23,1.6,1.6,0,0,1,2-1.08,1.76,1.76,0,0,1,.57.31,1.38,1.38,0,0,1,.36,1.08c-.07.34-.48.61-.74.91Z" transform="translate(0 0.07)"/><path class="cls-1" d="M124.35,67.57c-.2-1.78.31-3.6-.41-5.38h1.24c-.09.75-.24,1.48-.26,2.21-.06,1.31,0,2.63,0,3.94a5.09,5.09,0,0,1-.08,1l-6.21-5.5-.17.06v1.2c0,.86,0,1.73.06,2.59a12.07,12.07,0,0,0,.31,1.45h-1.42c.68-.52.47-1.23.48-1.88V63.73a11.14,11.14,0,0,0-.28-1.53,1.13,1.13,0,0,1,1.06.34c1.76,1.65,3.55,3.27,5.33,4.9a2.75,2.75,0,0,0,.26.22Z" transform="translate(0 0.07)"/><path class="cls-1" d="M157.73,62.19H159a16,16,0,0,0-.29,1.82c0,1.45,0,2.9-.06,4.36a4.24,4.24,0,0,1-.08.93l-6.25-5.54c-.37,1.48-.09,4.75.46,5.36h-1.68c.72-.52.53-1.23.54-1.89V63.58a7.55,7.55,0,0,0-.31-1.41,1.1,1.1,0,0,1,1.05.3c1.76,1.65,3.55,3.27,5.33,4.9.09.09.2.16.44.36C158,65.8,158.42,64,157.73,62.19Z" transform="translate(0 0.07)"/><path class="cls-1" d="M180,65.73c-.69.48-.67,2.5,0,3.39h-1.73a8.33,8.33,0,0,0,.22-1.31v-4a8.85,8.85,0,0,0-.33-1.61h1.76a5.68,5.68,0,0,0-.33,3.26c1.17-1,2.47-1.78,3.12-3.26h1.67l-3.21,2.49c-.39.29-.44.52-.06.87,1,.92,2,1.9,3,2.79a7.51,7.51,0,0,0,1.54.8,2.93,2.93,0,0,1-2.48-.49c-.86-.77-1.69-1.58-2.54-2.37Z" transform="translate(0 0.07)"/><path class="cls-1" d="M67.88,69.15h-1c1.43-1.47,2-3.4,3-5.1.57-1,.55-1-.2-1.8.89-.29,1.31-.14,1.71.63.87,1.67,1.72,3.34,2.6,5,.23.43.54.81.82,1.23h-2c.15-.51-.34-2.52-.75-2.56a20.61,20.61,0,0,0-2.94,0Zm4-3.12-1.19-2.46L69.38,66Z" transform="translate(0 0.07)"/><path class="cls-1" d="M163.08,62.25c1.2-.26,1.33-.19,1.83.78.88,1.71,1.76,3.41,2.66,5.1a9.86,9.86,0,0,0,.69,1h-2.07c.5-.59,0-1-.1-1.5-.26-.94-.81-1.2-1.82-1.24-1.3,0-2.11.27-2.43,1.58-.1.38-.26.75-.41,1.18h-1.21c1.18-.88,1.52-2.24,2.2-3.38.35-.59.63-1.21.94-1.82C163.84,63,163.84,63,163.08,62.25Zm1.06,1.3L162.85,66h2.48Z" transform="translate(0 0.07)"/><path class="cls-1" d="M126,62.23h5c.19,0,.36.45.47.78a4.1,4.1,0,0,0-2.88-.54c-.45,0-.71.16-.69.7s-.07,1.36-.11,2.07A5.11,5.11,0,0,0,131,65v.92l-3.16-.26a21.73,21.73,0,0,0,.2,2.42c.05.25.47.53.77.59a3.29,3.29,0,0,0,3.2-.6,1.27,1.27,0,0,1,.31-.2c-.22.93-.62,1.27-1.5,1.27h-4.46s0-.11,0-.12a2.39,2.39,0,0,0,.64-2.1c0-1.07-.07-2.15-.08-3.23A1.48,1.48,0,0,0,126,62.23Z" transform="translate(0 0.07)"/><path class="cls-1" d="M81.75,62.23h4.64c.64,0,.43.44.52.87a3.83,3.83,0,0,0-3-.55c-.17,0-.44.2-.45.33-.1.79-.13,1.58-.19,2.4A5.28,5.28,0,0,0,86.46,65v1l-3.19-.29c.09.92.11,1.74.26,2.53,0,.2.45.43.72.49a3.34,3.34,0,0,0,3.25-.64,3.37,3.37,0,0,1,.32-.19c-.37,1.08-.63,1.29-1.6,1.29h-4.4v-.12a2.35,2.35,0,0,0,.64-2c0-1.08,0-2.15-.06-3.23A1.78,1.78,0,0,0,81.75,62.23Z" transform="translate(0 0.07)"/><path class="cls-1" d="M176.78,62.38l.07,1.08c-.36-.24-.6-.43-.86-.58a5,5,0,0,0-4.8.44,2.77,2.77,0,0,0-.55,3.74,4.13,4.13,0,0,0,4.73,1.58c.61-.17,1.18-.45,1.87-.72a3.56,3.56,0,0,1-.71.84c-1.46.87-4.79.55-6.17-.55-2.12-1.71-1.6-4.52,1-5.68a7.71,7.71,0,0,1,3.75-.36C175.67,62.21,176.19,62.31,176.78,62.38Z" transform="translate(0 0.07)"/><path class="cls-1" d="M136,65.13a1.84,1.84,0,0,1,1.85-1.81,2.08,2.08,0,0,1,2,1.9A2,2,0,0,1,138,67.13,2.18,2.18,0,0,1,136,65.13Z" transform="translate(0 0.07)"/><path class="cls-1" d="M94.34,63.23A1.91,1.91,0,0,1,94.4,67a2.22,2.22,0,0,1-2-2.05A1.91,1.91,0,0,1,94.34,63.23Z" transform="translate(0 0.07)"/><path class="cls-1" d="M81,63.06c-1-.82-2-.53-3.09-.53-.12,0-.33.28-.34.44v2.34l2.94-.18v.67l-3.06-.29a8.73,8.73,0,0,0,.45,3.62H76.2a7.89,7.89,0,0,0,.29-1.43c0-1.37,0-2.74-.07-4.11a6,6,0,0,0-.4-1.37h4.19C80.82,62.22,81.09,62.35,81,63.06Z" transform="translate(0 0.07)"/><path class="cls-1" d="M104.39,59.9a14.93,14.93,0,0,0-1.88-.27,2.35,2.35,0,0,0-2.46,2.23,2.17,2.17,0,0,0,0,.36,1.3,1.3,0,0,0,.45.79.7.7,0,0,0,.65-.16,2.37,2.37,0,0,0,0-.92c0-.08-.08-.15-.16-.31a1.09,1.09,0,0,1,1,.88,1.06,1.06,0,0,1-.66,1.19,1.7,1.7,0,0,1-1.83-.23A1.49,1.49,0,0,1,99,61.82a3.76,3.76,0,0,1,3.2-2.82,7.91,7.91,0,0,1,1.68.16C104.24,59.27,104.52,59.51,104.39,59.9Z" transform="translate(0 0.07)"/><path class="cls-1" d="M116.42,62.25c-.59,1-.54,5.94.06,6.87h-1.66a14.2,14.2,0,0,0,.19-1.44V63.86a9.94,9.94,0,0,0-.31-1.61Z" transform="translate(0 0.07)"/><path class="cls-1" d="M85.58,60.31c-.35.42-.6,1-1.22,1.08l-.15-.16,1.2-1.11Z" transform="translate(0 0.07)"/></svg>