<svg id="Layer_1" data-name="Layer 1" xmlns="http://www.w3.org/2000/svg" viewBox="0 0 185.56 76"><path d="M9.06,69.77c0-.51,0-1,0-1.52s.1-1,.19-1.53c.12-.74.28-1.46.47-2.18a11.4,11.4,0,0,1,.82-2.27A12.34,12.34,0,0,1,12,60.11c.8-1,1.66-1.92,2.47-2.89a13.94,13.94,0,0,0,1.73-2.57c.26-.51.57-1,.86-1.47A5,5,0,0,0,17.68,51c.18-2.94,0-5.89,0-8.83,0-3.3-.09-6.6-.07-9.91q0-.84.06-1.68c0-.56.07-1.15.13-1.72a26.22,26.22,0,0,0,.13-4.25c0-.6-.13-1.19-.2-1.78,0-.12-.15-.08-.21-.09-.75-.16-1.49-.37-2.24-.58a14.68,14.68,0,0,1-3.12-1.23A6.54,6.54,0,0,1,10,19.17,4.45,4.45,0,0,1,9.11,17a5.6,5.6,0,0,1,.06-2,3.62,3.62,0,0,1,1.31-2c.71-.58,1.47-1.09,2.18-1.66.15-.12.07-.32.05-.48-.05-.47-.12-.93-.19-1.4s-.11-.88-.2-1.31a12.66,12.66,0,0,1-.22-1.84,10.16,10.16,0,0,1,0-1.83,2.34,2.34,0,0,1,.51-1.12.39.39,0,0,1,.08-.1c.28-.38.43-.41.87-.19a3.83,3.83,0,0,1,1.31,1.19c.68.9,1.21,1.89,1.81,2.84a10.29,10.29,0,0,0,.82,1.14,1.44,1.44,0,0,0,1.05.55c.84.09,1.68.15,2.51.26a6,6,0,0,1,3,1,.42.42,0,0,0,.57,0,11.09,11.09,0,0,0,1.37-1,3.91,3.91,0,0,1,1.61-.88,1.89,1.89,0,0,1,.58,0c.23,0,.27.24.32.4a3.34,3.34,0,0,1-.07,2c-.21.79-.51,1.55-.67,2.35-.07.35.16.59.3.85a8.72,8.72,0,0,1,1.13,2.9,4.24,4.24,0,0,1-1,3.76A5,5,0,0,1,26,21.76a19.43,19.43,0,0,1-2.73.56c-.37.05-.38.05-.33.42a55.75,55.75,0,0,1,.3,7.75c0,1.84-.13,3.68-.22,5.52-.12,2.5-.21,5-.11,7.51a25.37,25.37,0,0,0,1.14,6.58,41.47,41.47,0,0,0,1.92,5,29.15,29.15,0,0,0,2,3.37,19.69,19.69,0,0,1,2.24,4.26,21.11,21.11,0,0,1,.85,3.42,25.67,25.67,0,0,1,.19,5.61c0,.22.06.24.25.24a12.65,12.65,0,0,0,8.23-3,33.18,33.18,0,0,0,7.42-8.42c.4-.64.81-1.29,1.19-1.95a4.77,4.77,0,0,0,.56-2,14.85,14.85,0,0,0,0-2.31,19.32,19.32,0,0,0-.83-5.17,13.93,13.93,0,0,0-2.46-4.38,19.5,19.5,0,0,0-5.39-4.56c-1.74-1-3.52-2-5.23-3.09a15.48,15.48,0,0,1-4.47-4.14A8.84,8.84,0,0,1,29,29.16a20.11,20.11,0,0,1-.06-4c.11-1.5.33-3,.53-4.47.08-.66.22-1.32.28-2s.2-1.55.34-2.32A9.24,9.24,0,0,1,31,13.7a2.38,2.38,0,0,1,1.41-1.25,1.83,1.83,0,0,1,1.54.23,2.7,2.7,0,0,1,1.45,1.69,3.47,3.47,0,0,1-.07,1.75,14.44,14.44,0,0,1-1,2.38,11.62,11.62,0,0,0-1,3.15,25.1,25.1,0,0,0-.27,5.2,7.4,7.4,0,0,0,.49,2.55,4.46,4.46,0,0,0,1.91,2,17.64,17.64,0,0,0,3.24,1.43,19.33,19.33,0,0,1,4,1.85,26.76,26.76,0,0,1,3,2.27c.67.59,1.31,1.2,1.93,1.85a21.21,21.21,0,0,1,3,4.13,17.68,17.68,0,0,1,2.1,5.85,28.77,28.77,0,0,1,.28,6.15A24.74,24.74,0,0,1,52.79,58a20.45,20.45,0,0,1-.89,3.69,14.84,14.84,0,0,1-2.17,4.13c-1,1.29-2.07,2.48-3.08,3.74a35.25,35.25,0,0,1-3.31,3.7A19.93,19.93,0,0,1,38,76.87a32.23,32.23,0,0,1-4.36,1.64,11.28,11.28,0,0,1-4.4.43,3.42,3.42,0,0,1-.9-.24A8.93,8.93,0,0,0,26,78.21a111.78,111.78,0,0,0-11.72-.28,8.19,8.19,0,0,0-1.3.21,2.11,2.11,0,0,1-.83,0c-.21-.06-.4-.14-.4-.4a2.35,2.35,0,0,0-.62-1.44c-.26-.36-.52-.73-.81-1.07a5.43,5.43,0,0,1-1.14-2.73A13.43,13.43,0,0,1,9.06,69.77Z" transform="translate(-9.04 -3)"/><path d="M94.92,18.64c.41,2.7.65,5.3.92,7.9a117.39,117.39,0,0,1,.3,15.58c-.08,2.43-.35,4.84-.65,7.26-.09.73-.17,1.47-.22,2.21,0,.42-.22.5-.6.45-1-.14-2-.28-2.94-.36-.43,0-.54-.19-.48-.57.2-1.22.28-2.45.41-3.68.2-1.78.34-3.57.44-5.36.13-2.49.15-5,.13-7.49s-.17-5-.37-7.47c0-.22.1-.54-.13-.63s-.41.2-.59.35l-10.1,8c-.43.34-.89.89-1.34.9s-.85-.57-1.27-.91L68.06,26.49l-.2-.12a3.66,3.66,0,0,0-.25,1.55,112.87,112.87,0,0,0-.26,11.63c.08,3,.35,5.93.6,8.89.08.9.17,1.8.3,2.69.07.44-.1.51-.49.55-1,.08-1.92.2-2.88.35-.43.07-.61-.08-.65-.48-.21-2.21-.46-4.42-.65-6.64a96,96,0,0,1-.31-11.25c.09-3.11.28-6.22.66-9.31.2-1.66.37-3.32.56-5,0-.2,0-.47.17-.55s.32.14.47.25l11.43,9.07c.92.73,1.86,1.43,2.77,2.18a.59.59,0,0,0,.89,0Q86.09,25.64,92,21Z" transform="translate(-9.04 -3)"/><path d="M136.15,52c-5.26-.16-8.92-2.83-11.14-7.46a14,14,0,0,1,5.46-17.62,10,10,0,0,1,14.33,3.79,7.93,7.93,0,0,1-3,10.83c-3.76,2-7.65.35-8.71-3.42A4.87,4.87,0,0,1,137.74,32c.36,0,.45.1.44.45,0,1,0,1.94,0,2.91,0,.34-.08.45-.44.5a1,1,0,0,0-.92,1.59c.48,1.22,1.91,1.58,3.24.8a4.27,4.27,0,0,0,1.77-4.8A6.11,6.11,0,0,0,133,29.84a9.54,9.54,0,0,0-5.18,7.71,9.36,9.36,0,0,0,3,8.55,8.14,8.14,0,0,0,10.88.2c.58-.5,1.13-1,1.67-1.57.25-.25.41-.25.65,0,.69.68,1.4,1.34,2.11,2,.18.18.28.29,0,.54a14.06,14.06,0,0,1-7.91,4.61C137.54,52,136.85,51.9,136.15,52Z" transform="translate(-9.04 -3)"/><path d="M190.52,51.74c-.45,0-.91,0-1.36,0s-.56-.15-.56-.56a52.5,52.5,0,0,0-.37-5.74c0-.18-.08-.36-.11-.54-.09-.46,0-1.09-.33-1.32s-.91-.07-1.39-.08c-4.6,0-9.2,0-13.81,0-.59,0-.81.18-.91.77a41.44,41.44,0,0,0-.55,6.39c0,1.08,0,1.08-1,1.08-.78,0-1.57,0-2.35,0-.36,0-.45-.12-.44-.46.14-5.71.94-11.27,3.61-16.43a30.49,30.49,0,0,1,8.67-10,.4.4,0,0,1,.59,0,29.64,29.64,0,0,1,10,12.94,36,36,0,0,1,2.21,11.34c0,.72.06,1.44.11,2.16,0,.4-.12.49-.49.47S191,51.74,190.52,51.74ZM179.87,39.68c2.11,0,4.21,0,6.32,0,.52,0,.6-.14.41-.6A25,25,0,0,0,180.42,30c-.37-.35-.61-.38-1,0a23.69,23.69,0,0,0-6.29,9.19c-.18.45-.09.57.38.56h6.38Z" transform="translate(-9.04 -3)"/><path d="M122.5,49.59c0,.57,0,1.15.08,1.73,0,.31-.06.44-.4.43-1,0-2,0-3,0-.35,0-.45-.11-.45-.46,0-1.26,0-2.52-.1-3.77a31.29,31.29,0,0,0-.48-3.61c0-.28-.17-.4-.49-.4q-7.59,0-15.17,0c-.43,0-.51.23-.57.56a34.19,34.19,0,0,0-.6,7.06c0,.47-.1.65-.61.62-.92,0-1.85,0-2.78,0-.3,0-.45,0-.44-.41,0-7,1.38-13.58,5.4-19.45a32.4,32.4,0,0,1,6.88-7,.4.4,0,0,1,.59,0,28.52,28.52,0,0,1,10.12,13.49A35.45,35.45,0,0,1,122.5,49.59Zm-5.59-10a24.4,24.4,0,0,0-6.57-9.84c-.28-.25-.45-.17-.68,0a23.6,23.6,0,0,0-6.44,9.38c-.12.33-.09.43.28.43Z" transform="translate(-9.04 -3)"/><path d="M155.12,45A17.89,17.89,0,0,0,159,47.57a8.74,8.74,0,0,0,1.79.66c1.09.28,1.71-.27,1.47-1.38a26.47,26.47,0,0,0-.67-2.62c-.15-.52,0-.75.5-.88.85-.24,1.68-.54,2.52-.81.3-.1.5-.06.6.3a15.1,15.1,0,0,1,.82,5.2,4.23,4.23,0,0,1-4.1,4,10.65,10.65,0,0,1-6.67-2.19,25.87,25.87,0,0,1-3.59-2.92c-.09-.08-.15-.2-.37-.19.08.93.16,1.86.25,2.78,0,.55.08,1.11.16,1.66.05.33-.05.45-.37.46-1,.05-2,.08-3,.16-.36,0-.41-.16-.43-.43-.24-2.84-.54-5.67-.56-8.51,0-4-.14-8.09.16-12.13.13-1.61.29-3.2.42-4.8,0-.4.17-.54.57-.48.93.14,1.87.27,2.81.37.37,0,.47.14.43.53a117.19,117.19,0,0,0-.68,14.51,6.09,6.09,0,0,1,0,.74c0,.48.13.62.62.49a13.09,13.09,0,0,0,7.91-5.93,18.29,18.29,0,0,0,2.48-9.74c0-.66.2-.82.82-.78.87.05,1.73,0,2.6,0,.24,0,.37,0,.37.32,0,5.49-1.22,10.58-5,14.82a15.7,15.7,0,0,1-5.07,3.78Z" transform="translate(-9.04 -3)"/><path d="M137.18,20a2,2,0,0,1-1.94,2,2.31,2.31,0,0,1-2.09-2.15,1.93,1.93,0,0,1,2-1.87,2,2,0,0,1,2,2Z" transform="translate(-9.04 -3)"/><path d="M116.81,68.35l-1.92,4.05c-.3-.54-.54-.93-.74-1.34-1.05-2.15-2.08-4.3-3.11-6.46-.36-.77-.14-1.19.69-1.43L115,70.36a2.78,2.78,0,0,0,.29-.4l2.79-6.47a.91.91,0,0,0-.34-1.29h2.57c-1.27.94-1.65,2.38-2.36,3.63a2,2,0,0,0,0,2.23c.44.7.76,1.48,1.21,2.38.41-.89.77-1.62,1.08-2.37.62-1.48,1.22-3,1.84-4.45a1.08,1.08,0,0,0-.22-1.41h2.47c-1.35,1-1.75,2.56-2.43,3.93-1,2-1.93,4.06-3,6.3Z" transform="translate(-9.04 -3)"/><path d="M74.82,70.17a2.23,2.23,0,0,1-1.65,1.72,7.61,7.61,0,0,1-5.83-.34,4.76,4.76,0,0,1-2.72-4.49,4.93,4.93,0,0,1,3.51-4.63,6.87,6.87,0,0,1,5.54.31A1.89,1.89,0,0,1,74.75,64,1.59,1.59,0,0,1,74,65.92a9.64,9.64,0,0,1-4.86,1.3,19.38,19.38,0,0,0,2.58-.94A3.32,3.32,0,0,0,73.11,65,1.61,1.61,0,0,0,72,62.79a4.74,4.74,0,0,0-5.2,1.66c-1.46,2.08-.62,5.15,1.64,6.6,1.68,1.07,4.89.48,6-.55A3.68,3.68,0,0,1,74.82,70.17Z" transform="translate(-9.04 -3)"/><path d="M154.56,69.93a3.18,3.18,0,0,0,.26-.64c.08-.37-.08-.73-.46-.74a.84.84,0,0,0-.69.44,1.68,1.68,0,0,0,.39,1.84,3,3,0,0,0,3.25.64,1.63,1.63,0,0,0,.53-2.72,15.29,15.29,0,0,0-1.66-1.29c-.54-.39-1.1-.76-1.61-1.18a2,2,0,0,1-.78-2.24,2.31,2.31,0,0,1,1.88-1.74,7.61,7.61,0,0,1,1.51-.06c.59,0,1.17,0,1.83.09l.14,1.71-.13.06-.51-.6a2.57,2.57,0,0,0-3.15-.49,1.26,1.26,0,0,0-.25,2,15,15,0,0,0,1.64,1.32l1.83,1.38a2.52,2.52,0,0,1-.21,3.88,4.38,4.38,0,0,1-5.26-.47,2.28,2.28,0,0,1-.59-2.23,1.6,1.6,0,0,1,2.56-.77,1.36,1.36,0,0,1,.36,1.08c-.07.34-.48.61-.74.91Z" transform="translate(-9.04 -3)"/><path d="M133.39,70.57c-.2-1.78.31-3.6-.41-5.38h1.24c-.09.75-.24,1.48-.26,2.21-.06,1.31,0,2.63-.05,3.94,0,.27,0,.54-.08,1l-6.21-5.5-.17.06c0,.4,0,.8,0,1.2,0,.86,0,1.73.06,2.59a11.41,11.41,0,0,0,.31,1.45H126.4c.68-.52.47-1.23.48-1.88,0-1.18,0-2.36,0-3.53a11.29,11.29,0,0,0-.28-1.53,1.12,1.12,0,0,1,1.06.34c1.76,1.65,3.55,3.27,5.33,4.9a2.75,2.75,0,0,0,.26.22Z" transform="translate(-9.04 -3)"/><path d="M166.77,65.19H168a15.25,15.25,0,0,0-.29,1.82c-.05,1.45,0,2.9-.06,4.36,0,.26,0,.53-.08.93l-6.25-5.54c-.37,1.48-.09,4.75.46,5.36h-1.68c.72-.52.53-1.23.54-1.89,0-1.21,0-2.43,0-3.65a7.35,7.35,0,0,0-.31-1.41,1.1,1.1,0,0,1,1.05.3c1.76,1.65,3.55,3.27,5.33,4.9.09.09.2.16.44.36C167,68.8,167.46,67,166.77,65.19Z" transform="translate(-9.04 -3)"/><path d="M189,68.73c-.69.48-.67,2.5,0,3.39h-1.73a9,9,0,0,0,.22-1.31c0-1.34,0-2.67,0-4a9.6,9.6,0,0,0-.33-1.61h1.76a5.72,5.72,0,0,0-.33,3.26c1.17-1,2.47-1.78,3.12-3.26h1.67l-3.21,2.49c-.39.29-.44.52-.06.87,1,.92,2,1.9,3,2.79a7.45,7.45,0,0,0,1.54.8,2.9,2.9,0,0,1-2.48-.49c-.86-.77-1.69-1.58-2.54-2.37Z" transform="translate(-9.04 -3)"/><path d="M76.92,72.15h-1c1.43-1.47,2-3.4,3-5.1.57-1,.55-1-.2-1.8.89-.29,1.31-.14,1.71.63.87,1.67,1.72,3.34,2.6,5,.23.43.54.81.82,1.23h-2c.15-.51-.34-2.52-.75-2.56a20.61,20.61,0,0,0-2.94,0Zm4-3.12-1.19-2.46L78.42,69Z" transform="translate(-9.04 -3)"/><path d="M172.12,65.25c1.2-.26,1.33-.19,1.83.78.88,1.71,1.76,3.41,2.66,5.1a9.3,9.3,0,0,0,.69,1h-2.07c.5-.59,0-1-.1-1.5-.26-.94-.81-1.2-1.82-1.24-1.3-.05-2.11.27-2.43,1.58-.1.38-.26.75-.41,1.18h-1.21c1.18-.88,1.52-2.24,2.2-3.38.35-.59.63-1.21.94-1.82C172.88,66,172.88,66,172.12,65.25Zm1.06,1.3L171.89,69h2.48Z" transform="translate(-9.04 -3)"/><path d="M135.07,65.23c1.79,0,3.39,0,5,0,.19,0,.36.45.47.78a4.14,4.14,0,0,0-2.88-.54c-.45,0-.71.16-.69.7s-.07,1.36-.11,2.07A5.09,5.09,0,0,0,140,68v.92l-3.16-.26a21.52,21.52,0,0,0,.2,2.42c.05.25.47.53.77.59a3.27,3.27,0,0,0,3.2-.6,1.51,1.51,0,0,1,.31-.2c-.22.93-.62,1.27-1.5,1.27h-4.46c0-.05-.05-.11,0-.12a2.39,2.39,0,0,0,.64-2.1c-.05-1.07-.07-2.15-.08-3.23A1.47,1.47,0,0,0,135.07,65.23Z" transform="translate(-9.04 -3)"/><path d="M90.79,65.23h4.64c.64,0,.43.44.52.87a3.84,3.84,0,0,0-3-.55c-.17,0-.44.2-.45.33-.1.79-.13,1.58-.19,2.4A5.28,5.28,0,0,0,95.5,68V69l-3.19-.29c.09.92.11,1.74.26,2.53,0,.2.45.43.72.49a3.34,3.34,0,0,0,3.25-.64,2.7,2.7,0,0,1,.32-.19c-.37,1.08-.63,1.29-1.6,1.29h-4.4c0-.05,0-.11,0-.12a2.35,2.35,0,0,0,.64-2c0-1.08,0-2.15-.06-3.23A1.77,1.77,0,0,0,90.79,65.23Z" transform="translate(-9.04 -3)"/><path d="M185.82,65.38l.07,1.08c-.36-.24-.6-.43-.86-.58a5,5,0,0,0-4.8.44,2.77,2.77,0,0,0-.55,3.74,4.13,4.13,0,0,0,4.73,1.58c.61-.17,1.18-.45,1.87-.72a3.75,3.75,0,0,1-.71.84c-1.46.87-4.79.55-6.17-.55-2.12-1.71-1.6-4.52,1-5.68a7.72,7.72,0,0,1,3.75-.36C184.71,65.21,185.23,65.31,185.82,65.38Z" transform="translate(-9.04 -3)"/><path d="M145,68.13a1.84,1.84,0,0,1,1.85-1.81,2.08,2.08,0,0,1,2,1.9A2,2,0,0,1,147,70.13,2.18,2.18,0,0,1,145,68.13Z" transform="translate(-9.04 -3)"/><path d="M103.38,66.23a1.91,1.91,0,0,1,.06,3.81,2.23,2.23,0,0,1-2-2.05A1.91,1.91,0,0,1,103.38,66.23Z" transform="translate(-9.04 -3)"/><path d="M90,66.06c-1-.82-2-.53-3.09-.53-.12,0-.33.28-.34.44,0,.74,0,1.48,0,2.34l2.94-.18v.67l-3.06-.29a8.78,8.78,0,0,0,.45,3.62H85.24a8.06,8.06,0,0,0,.29-1.43c0-1.37,0-2.74-.07-4.11a6,6,0,0,0-.4-1.37h2.36c.61,0,1.22,0,1.83,0S90.13,65.35,90,66.06Z" transform="translate(-9.04 -3)"/><path d="M113.43,62.9a14.93,14.93,0,0,0-1.88-.27,2.35,2.35,0,0,0-2.45,2.59,1.28,1.28,0,0,0,.45.79.72.72,0,0,0,.65-.16,2.39,2.39,0,0,0,0-.92c0-.08-.08-.15-.16-.31.57.12.9.37,1,.88a1.06,1.06,0,0,1-.66,1.19,1.7,1.7,0,0,1-1.83-.23,1.49,1.49,0,0,1-.47-1.64A3.75,3.75,0,0,1,111.28,62a7.91,7.91,0,0,1,1.68.16C113.28,62.27,113.56,62.51,113.43,62.9Z" transform="translate(-9.04 -3)"/><path d="M125.46,65.25c-.59,1-.54,5.94.06,6.87h-1.66a13.83,13.83,0,0,0,.19-1.44c0-1.28,0-2.55,0-3.82a10.16,10.16,0,0,0-.31-1.61Z" transform="translate(-9.04 -3)"/><path d="M94.62,63.31c-.35.42-.6,1-1.22,1.08l-.15-.16,1.2-1.11Z" transform="translate(-9.04 -3)"/></svg>