<svg id="Layer_1" data-name="Layer 1" xmlns="http://www.w3.org/2000/svg" viewBox="0 0 70.7 155.38"><path d="M6.32,111.52c0-.8-.05-1.6,0-2.39s.17-1.6.29-2.39c.19-1.17.45-2.3.75-3.43a17.13,17.13,0,0,1,1.29-3.55,18.52,18.52,0,0,1,2.21-3.4c1.26-1.54,2.6-3,3.87-4.53a22.44,22.44,0,0,0,2.72-4c.4-.8.9-1.54,1.34-2.32a7.62,7.62,0,0,0,1-3.42c.3-4.61,0-9.23,0-13.84,0-5.18-.14-10.36-.12-15.55,0-.88,0-1.77.1-2.65s.12-1.79.21-2.68a41.41,41.41,0,0,0,.2-6.68c-.06-.93-.21-1.86-.32-2.79,0-.19-.23-.13-.32-.15-1.18-.25-2.35-.57-3.52-.9a23.15,23.15,0,0,1-4.89-1.93,10.18,10.18,0,0,1-3.38-2.77,6.83,6.83,0,0,1-1.42-3.35A9,9,0,0,1,6.5,25.7a5.66,5.66,0,0,1,2.05-3.14c1.12-.91,2.31-1.7,3.43-2.61.23-.19.1-.5.08-.75-.08-.73-.19-1.46-.3-2.19s-.18-1.38-.31-2.07a18.57,18.57,0,0,1-.35-2.88,16.29,16.29,0,0,1,.06-2.88A3.92,3.92,0,0,1,12,7.43c0-.06.09-.1.13-.16.44-.59.68-.64,1.36-.3a6.12,6.12,0,0,1,2.07,1.88c1.07,1.4,1.89,3,2.83,4.45q.6.93,1.29,1.8a2.31,2.31,0,0,0,1.66.86c1.31.13,2.63.23,3.93.41a9.46,9.46,0,0,1,4.72,1.55.66.66,0,0,0,.9.07A20.36,20.36,0,0,0,33,16.45a6.31,6.31,0,0,1,2.53-1.4,3.48,3.48,0,0,1,.91,0c.36,0,.42.37.51.63a5.32,5.32,0,0,1-.12,3.11c-.33,1.23-.79,2.43-1.05,3.68-.11.55.24.92.47,1.34A13.82,13.82,0,0,1,38,28.32a6.66,6.66,0,0,1-1.55,5.9,7.83,7.83,0,0,1-3.5,2,29.67,29.67,0,0,1-4.29.88c-.56.08-.59.08-.51.66a86.65,86.65,0,0,1,.47,12.16c0,2.89-.2,5.78-.34,8.66-.19,3.93-.33,7.86-.17,11.78a39.4,39.4,0,0,0,1.78,10.33,64.55,64.55,0,0,0,3,7.9A43.87,43.87,0,0,0,36,93.85a30.68,30.68,0,0,1,3.5,6.69,31.6,31.6,0,0,1,1.34,5.36,41.75,41.75,0,0,1,.3,8.8c0,.34.09.39.39.39a19.91,19.91,0,0,0,12.91-4.67A52.09,52.09,0,0,0,66.1,97.21c.63-1,1.27-2,1.88-3a7.6,7.6,0,0,0,.86-3.08,23.17,23.17,0,0,0,.07-3.63,29.75,29.75,0,0,0-1.3-8.11,22.24,22.24,0,0,0-3.86-6.88,30.54,30.54,0,0,0-8.45-7.15c-2.73-1.63-5.54-3.13-8.2-4.85a24.43,24.43,0,0,1-7-6.48,13.87,13.87,0,0,1-2.41-6.17,31.24,31.24,0,0,1-.09-6.34c.17-2.34.51-4.67.82-7,.14-1,.35-2.07.45-3.11.13-1.22.31-2.43.52-3.64a14.26,14.26,0,0,1,1.31-4.17,3.72,3.72,0,0,1,2.21-2A2.89,2.89,0,0,1,45.3,22a4.26,4.26,0,0,1,2.28,2.64,5.7,5.7,0,0,1-.11,2.75A21.71,21.71,0,0,1,46,31.08,18.63,18.63,0,0,0,44.44,36,39.14,39.14,0,0,0,44,44.17a11.38,11.38,0,0,0,.78,4,6.89,6.89,0,0,0,3,3.12,27.72,27.72,0,0,0,5.08,2.24,29.5,29.5,0,0,1,6.33,2.91A43,43,0,0,1,63.93,60c1.05.93,2.05,1.89,3,2.9a32.89,32.89,0,0,1,4.75,6.49A28.09,28.09,0,0,1,75,78.56a46.41,46.41,0,0,1,.44,9.64A39.57,39.57,0,0,1,74.94,93a33.1,33.1,0,0,1-1.39,5.8,23.35,23.35,0,0,1-3.42,6.47c-1.53,2-3.24,3.9-4.83,5.88a56,56,0,0,1-5.19,5.8,30.84,30.84,0,0,1-8.4,5.67,48.36,48.36,0,0,1-6.85,2.58,17.71,17.71,0,0,1-6.9.67,5.32,5.32,0,0,1-1.42-.38,14.13,14.13,0,0,0-3.57-.76c-6.12-.69-12.26-.4-18.4-.44a13.2,13.2,0,0,0-2,.33,3.22,3.22,0,0,1-1.31,0c-.33-.08-.62-.22-.62-.62a3.68,3.68,0,0,0-1-2.26c-.41-.57-.82-1.15-1.28-1.68a8.53,8.53,0,0,1-1.78-4.28A20.92,20.92,0,0,1,6.32,111.52Z" transform="translate(-4.8 -6.76)"/><path d="M21.74,133.38c.22,1.45.35,2.83.5,4.22a62.61,62.61,0,0,1,.15,8.33,38.81,38.81,0,0,1-.34,3.88c-.05.4-.09.79-.12,1.19,0,.22-.12.26-.32.23-.52-.07-1.05-.14-1.57-.19-.23,0-.29-.1-.26-.3.11-.65.15-1.31.22-2,.11-1,.18-1.91.23-2.86.08-1.33.08-2.67.08-4s-.09-2.66-.2-4c0-.12.05-.29-.07-.34s-.22.11-.32.19Q17,139.89,14.33,142c-.24.18-.48.47-.72.48s-.46-.31-.68-.49l-5.55-4.44a.27.27,0,0,0-.1-.06,2,2,0,0,0-.14.83A58.45,58.45,0,0,0,7,144.56c0,1.59.19,3.17.32,4.75,0,.48.09,1,.16,1.44,0,.24-.06.27-.27.29-.51.05-1,.11-1.54.19-.23,0-.32,0-.34-.25-.12-1.19-.25-2.37-.35-3.55a52.56,52.56,0,0,1-.17-6c0-1.66.15-3.32.36-5,.1-.88.19-1.77.3-2.65,0-.11,0-.25.09-.3s.17.08.25.14l6.11,4.85c.49.39,1,.76,1.48,1.16.18.15.29.16.47,0q3.14-2.52,6.29-5Z" transform="translate(-4.8 -6.76)"/><path d="M43.78,151.21a6.47,6.47,0,0,1-6-4,7.49,7.49,0,0,1,2.92-9.41,5.35,5.35,0,0,1,7.66,2,4.24,4.24,0,0,1-1.61,5.79,3.08,3.08,0,0,1-4.66-1.82,2.61,2.61,0,0,1,2.5-3.28c.18,0,.24.05.23.24,0,.52,0,1,0,1.55,0,.18,0,.25-.23.27a.56.56,0,0,0-.5.85,1.14,1.14,0,0,0,1.73.43,2.28,2.28,0,0,0,1-2.57,3.26,3.26,0,0,0-4.75-1.91,5.09,5.09,0,0,0-2.76,4.12,5,5,0,0,0,1.6,4.57,4.35,4.35,0,0,0,5.81.11q.47-.4.9-.84c.13-.13.22-.13.35,0,.37.36.74.72,1.12,1.07.1.09.15.15,0,.29a7.5,7.5,0,0,1-4.23,2.46C44.52,151.21,44.16,151.16,43.78,151.21Z" transform="translate(-4.8 -6.76)"/><path d="M72.85,151.08c-.24,0-.49,0-.73,0s-.3-.08-.3-.3a26.06,26.06,0,0,0-.2-3.06,2.47,2.47,0,0,0-.06-.29c0-.25,0-.59-.17-.71s-.49,0-.74,0H63.27c-.32,0-.44.1-.49.41a21.73,21.73,0,0,0-.3,3.42c0,.58,0,.58-.56.58s-.84,0-1.26,0c-.19,0-.24-.06-.23-.24a19.65,19.65,0,0,1,1.93-8.79A16.23,16.23,0,0,1,67,136.7a.21.21,0,0,1,.31,0,15.74,15.74,0,0,1,5.32,6.92,19.3,19.3,0,0,1,1.19,6.06c0,.38,0,.77.06,1.15,0,.22-.07.27-.27.26S73.1,151.08,72.85,151.08Zm-5.69-6.45h3.37c.28,0,.32-.07.22-.31a13.28,13.28,0,0,0-3.3-4.89c-.2-.19-.32-.21-.54,0a12.64,12.64,0,0,0-3.37,4.91c-.1.24,0,.3.21.3h3.41Z" transform="translate(-4.8 -6.76)"/><path d="M36.49,149.92c0,.31,0,.62,0,.93s0,.24-.21.23c-.54,0-1.09,0-1.63,0-.19,0-.24-.06-.24-.24,0-.68,0-1.35-.05-2a15.7,15.7,0,0,0-.26-1.93c0-.15-.09-.22-.26-.21H25.77c-.23,0-.27.12-.3.3a18.3,18.3,0,0,0-.33,3.77c0,.25-.05.35-.32.33-.5,0-1,0-1.49,0-.16,0-.24,0-.24-.22A18.11,18.11,0,0,1,26,140.47a17.36,17.36,0,0,1,3.68-3.78.21.21,0,0,1,.31,0,15.23,15.23,0,0,1,5.42,7.21A19.31,19.31,0,0,1,36.49,149.92Zm-3-5.32A13.08,13.08,0,0,0,30,139.34c-.15-.13-.24-.09-.37,0a12.69,12.69,0,0,0-3.44,5c-.07.18-.05.23.15.23Z" transform="translate(-4.8 -6.76)"/><path d="M53.92,147.45a10.25,10.25,0,0,0,2.1,1.4,5,5,0,0,0,.95.35c.59.15.92-.15.79-.74a13.64,13.64,0,0,0-.35-1.4c-.09-.28,0-.4.26-.47.46-.13.9-.29,1.35-.43.16-.06.27,0,.32.16a8.17,8.17,0,0,1,.44,2.78,2.26,2.26,0,0,1-2.19,2.14A5.67,5.67,0,0,1,54,150.07a13.64,13.64,0,0,1-1.92-1.56c-.05,0-.08-.11-.19-.1,0,.49.08,1,.13,1.48,0,.3,0,.6.08.89s0,.24-.19.25c-.54,0-1.08,0-1.62.08-.2,0-.22-.08-.24-.23-.12-1.51-.28-3-.29-4.55,0-2.16-.08-4.32.08-6.48.07-.86.16-1.71.23-2.57,0-.21.09-.29.3-.25l1.51.2c.19,0,.24.07.22.28a62.81,62.81,0,0,0-.36,7.76c0,.13,0,.26,0,.39s.07.33.33.26a7,7,0,0,0,4.23-3.17,9.7,9.7,0,0,0,1.32-5.2c0-.36.11-.44.44-.42s.93,0,1.39,0c.13,0,.2,0,.2.18A11.48,11.48,0,0,1,57,145.23a8.4,8.4,0,0,1-2.71,2Z" transform="translate(-4.8 -6.76)"/><path d="M44.33,134.08a1,1,0,0,1-1,1.07A1.22,1.22,0,0,1,42.18,134a1,1,0,0,1,1.06-1,1.07,1.07,0,0,1,1.09,1.06Z" transform="translate(-4.8 -6.76)"/><path d="M33.45,160l-1,2.16c-.16-.29-.29-.5-.4-.72-.56-1.15-1.11-2.3-1.66-3.45-.19-.41-.08-.64.37-.76.58,1.26,1.15,2.52,1.75,3.84a2.36,2.36,0,0,0,.16-.21c.5-1.15,1-2.31,1.49-3.46a.48.48,0,0,0-.18-.69h1.37a5.25,5.25,0,0,0-1.26,1.94,1,1,0,0,0,0,1.19,13.51,13.51,0,0,1,.65,1.27c.22-.47.41-.87.58-1.27.33-.79.65-1.58,1-2.38a.57.57,0,0,0-.11-.74h1.32a5,5,0,0,0-1.3,2.09c-.54,1.08-1,2.18-1.6,3.37Z" transform="translate(-4.8 -6.76)"/><path d="M11,160.93a1.2,1.2,0,0,1-.88.92A4.07,4.07,0,0,1,7,161.66a2.52,2.52,0,0,1-1.45-2.4,2.62,2.62,0,0,1,1.87-2.47,3.68,3.68,0,0,1,3,.16,1,1,0,0,1,.58.67.84.84,0,0,1-.39,1,5.17,5.17,0,0,1-2.6.7,10.27,10.27,0,0,0,1.38-.5,1.74,1.74,0,0,0,.73-.69A.85.85,0,0,0,9.47,157a2.52,2.52,0,0,0-2.78.89,2.56,2.56,0,0,0,.87,3.53,3.22,3.22,0,0,0,3.2-.29A1.79,1.79,0,0,1,11,160.93Z" transform="translate(-4.8 -6.76)"/><path d="M53.63,160.8a2,2,0,0,0,.14-.34c0-.2-.05-.39-.25-.4a.47.47,0,0,0-.37.24.89.89,0,0,0,.21,1,1.65,1.65,0,0,0,1.74.35.88.88,0,0,0,.28-1.46,7.54,7.54,0,0,0-.89-.69c-.29-.21-.58-.41-.86-.63a1.08,1.08,0,0,1-.41-1.2,1.23,1.23,0,0,1,1-.93,3.64,3.64,0,0,1,.81,0c.31,0,.62,0,1,.05l.07.91-.07,0-.27-.32a1.38,1.38,0,0,0-1.69-.26.68.68,0,0,0-.13,1.06,8.8,8.8,0,0,0,.88.71c.32.25.65.49,1,.73a1.36,1.36,0,0,1-.12,2.08,2.33,2.33,0,0,1-2.81-.26,1.22,1.22,0,0,1-.32-1.19.87.87,0,0,1,1.38-.41.77.77,0,0,1,.19.58c0,.18-.26.33-.4.48Z" transform="translate(-4.8 -6.76)"/><path d="M42.31,161.14a10.31,10.31,0,0,0-.22-2.87h.66c0,.4-.12.79-.14,1.18,0,.7,0,1.4,0,2.11,0,.14,0,.28-.05.51l-3.32-2.94-.09,0v.64c0,.46,0,.92,0,1.38a5.69,5.69,0,0,0,.16.78h-.76c.36-.28.25-.66.26-1,0-.63,0-1.26,0-1.88a5.09,5.09,0,0,0-.15-.82.6.6,0,0,1,.57.18c.94.89,1.9,1.75,2.85,2.62l.14.12Z" transform="translate(-4.8 -6.76)"/><path d="M60.15,158.27h.68a8.46,8.46,0,0,0-.15,1c0,.77,0,1.55,0,2.33,0,.14,0,.28,0,.5l-3.34-3a5.24,5.24,0,0,0,.25,2.86h-.9c.38-.28.28-.66.29-1,0-.65,0-1.3,0-2a4.68,4.68,0,0,0-.17-.75.57.57,0,0,1,.56.16c.94.88,1.9,1.75,2.85,2.62l.24.19A10.75,10.75,0,0,0,60.15,158.27Z" transform="translate(-4.8 -6.76)"/><path d="M72,160.16c-.36.25-.36,1.34,0,1.81h-.92a6,6,0,0,0,.12-.7c0-.71,0-1.43,0-2.14a5.23,5.23,0,0,0-.17-.86H72a3.05,3.05,0,0,0-.17,1.74,5.37,5.37,0,0,0,1.67-1.75h.89c-.57.44-1.14.9-1.72,1.34-.2.15-.23.27,0,.46.55.49,1.06,1,1.62,1.49A4.24,4.24,0,0,0,75,162a1.53,1.53,0,0,1-1.32-.26c-.46-.41-.9-.85-1.36-1.27C72.25,160.35,72.13,160.26,72,160.16Z" transform="translate(-4.8 -6.76)"/><path d="M12.12,162h-.55a12.26,12.26,0,0,0,1.61-2.72c.31-.53.3-.54-.1-1,.47-.16.7-.08.91.33.47.9.92,1.79,1.39,2.68a6.75,6.75,0,0,0,.44.65H14.77c.09-.27-.18-1.34-.4-1.37a11.76,11.76,0,0,0-1.57,0Zm2.15-1.66L13.63,159l-.71,1.32Z" transform="translate(-4.8 -6.76)"/><path d="M63,158.3c.65-.14.72-.1,1,.42.47.91.94,1.82,1.42,2.72a5.56,5.56,0,0,0,.37.52H64.67c.27-.31,0-.54,0-.8-.14-.5-.43-.64-1-.66s-1.13.15-1.3.84c-.05.21-.14.41-.22.64h-.65a5.44,5.44,0,0,0,1.18-1.81c.19-.31.34-.65.5-1C63.42,158.7,63.42,158.7,63,158.3Zm.57.69-.69,1.32h1.33Z" transform="translate(-4.8 -6.76)"/><path d="M43.21,158.29c.95,0,1.81,0,2.66,0,.1,0,.19.24.25.42a2.16,2.16,0,0,0-1.54-.29c-.24,0-.38.08-.37.37a10.6,10.6,0,0,1-.06,1.11,2.78,2.78,0,0,0,1.69-.14v.49l-1.69-.14a12.19,12.19,0,0,0,.11,1.29c0,.13.25.28.41.32a1.75,1.75,0,0,0,1.71-.33.85.85,0,0,1,.17-.1c-.12.5-.33.68-.8.68H43.36a.41.41,0,0,1,0-.07,1.25,1.25,0,0,0,.34-1.12c0-.57,0-1.15,0-1.73A.78.78,0,0,0,43.21,158.29Z" transform="translate(-4.8 -6.76)"/><path d="M19.53,158.29H22c.34,0,.23.23.28.46a2.1,2.1,0,0,0-1.6-.29c-.09,0-.24.1-.25.17-.05.42-.06.85-.09,1.29a2.85,2.85,0,0,0,1.69-.14v.5l-1.7-.15c0,.49.06.93.14,1.35,0,.11.24.23.38.26a1.8,1.8,0,0,0,1.74-.34.85.85,0,0,1,.17-.1c-.2.58-.34.69-.85.69H19.57s0-.06,0-.07a1.24,1.24,0,0,0,.34-1.09c0-.57,0-1.15,0-1.73A.92.92,0,0,0,19.53,158.29Z" transform="translate(-4.8 -6.76)"/><path d="M70.33,158.37l0,.58c-.19-.13-.32-.24-.46-.32a2.72,2.72,0,0,0-2.56.24,1.49,1.49,0,0,0-.3,2,2.22,2.22,0,0,0,2.53.85c.33-.09.63-.25,1-.39a1.89,1.89,0,0,1-.38.45,3.68,3.68,0,0,1-3.3-.3,1.72,1.72,0,0,1,.55-3,4.06,4.06,0,0,1,2-.19C69.74,158.28,70,158.33,70.33,158.37Z" transform="translate(-4.8 -6.76)"/><path d="M48.5,159.84a1,1,0,0,1,1-1,1.11,1.11,0,0,1,1.08,1,1.08,1.08,0,0,1-1,1A1.18,1.18,0,0,1,48.5,159.84Z" transform="translate(-4.8 -6.76)"/><path d="M26.26,158.82a1,1,0,0,1,0,2,1.21,1.21,0,0,1-1.07-1.1A1,1,0,0,1,26.26,158.82Z" transform="translate(-4.8 -6.76)"/><path d="M19.12,158.73c-.51-.44-1.09-.28-1.65-.28-.06,0-.17.15-.18.23,0,.4,0,.8,0,1.26l1.58-.1v.35L17.22,160a4.61,4.61,0,0,0,.24,1.93h-.89a3.93,3.93,0,0,0,.15-.76c0-.73,0-1.46,0-2.2a3.32,3.32,0,0,0-.22-.73h1.27c.32,0,.65,0,1,0S19.18,158.35,19.12,158.73Z" transform="translate(-4.8 -6.76)"/><path d="M31.64,157a7.64,7.64,0,0,0-1-.14,1.26,1.26,0,0,0-1.31,1.38.76.76,0,0,0,.25.43.41.41,0,0,0,.34-.09,1.35,1.35,0,0,0,0-.49.71.71,0,0,0-.09-.17c.31.06.48.2.51.47a.56.56,0,0,1-.35.64.92.92,0,0,1-1-.12.82.82,0,0,1-.25-.88,2,2,0,0,1,1.75-1.49,4.58,4.58,0,0,1,.9.09A.28.28,0,0,1,31.64,157Z" transform="translate(-4.8 -6.76)"/><path d="M38.07,158.3a7.24,7.24,0,0,0,0,3.67h-.89a6.49,6.49,0,0,0,.11-.77c0-.68,0-1.36,0-2a5.23,5.23,0,0,0-.17-.86Z" transform="translate(-4.8 -6.76)"/><path d="M21.58,157.26c-.18.23-.32.51-.65.58l-.08-.09.64-.59Z" transform="translate(-4.8 -6.76)"/></svg>